<svg width="25" height="25" viewBox="0 0 25 25" fill="none" xmlns="http://www.w3.org/2000/svg">
<path d="M24.415 6.17095L18.8288 0.585948C18.643 0.400182 18.4225 0.252823 18.1799 0.152285C17.9372 0.0517467 17.6771 0 17.4144 0C17.1517 0 16.8916 0.0517467 16.6489 0.152285C16.4062 0.252823 16.1857 0.400182 16 0.585948L0.58626 15.9997C0.399734 16.1847 0.251852 16.405 0.151209 16.6477C0.0505661 16.8904 -0.000829299 17.1507 1.01187e-05 17.4134V22.9997C1.01187e-05 23.5301 0.210724 24.0388 0.585796 24.4139C0.960869 24.789 1.46958 24.9997 2.00001 24.9997H23C23.2652 24.9997 23.5196 24.8943 23.7071 24.7068C23.8947 24.5193 24 24.2649 24 23.9997C24 23.7345 23.8947 23.4801 23.7071 23.2926C23.5196 23.1051 23.2652 22.9997 23 22.9997H10.415L24.415 8.9997C24.6008 8.81397 24.7481 8.59348 24.8487 8.35079C24.9492 8.10811 25.001 7.848 25.001 7.58532C25.001 7.32264 24.9492 7.06253 24.8487 6.81985C24.7481 6.57717 24.6008 6.35667 24.415 6.17095ZM13 6.41345L15.0863 8.4997L4.50001 19.0859L2.41376 16.9997L13 6.41345ZM2.00001 22.9997V19.4134L5.58626 22.9997H2.00001ZM8.00001 22.5859L5.91501 20.4997L16.5 9.91345L18.5863 11.9997L8.00001 22.5859ZM20 10.5859L14.415 4.9997L17.415 1.9997L23 7.58595L20 10.5859Z" fill="#1D8E5B"/>
</svg>
